<?xml version="1.0" encoding="UTF-8"?> <svg xmlns="http://www.w3.org/2000/svg" xmlns:xlink="http://www.w3.org/1999/xlink" version="1.1" id="Layer_1" x="0px" y="0px" width="276.047px" height="278.133px" viewBox="0 0 276.047 278.133" xml:space="preserve"> <g> <path fill-rule="evenodd" clip-rule="evenodd" fill="#5D5D5D" d="M21.75,173.297c1.401-2.353,3.452-3.261,6.184-3.095 c2.602,0.155,5.221,0.032,7.999,0.032c0.122-1.678,0.13-3.235,0.366-4.757c1.574-10.163,7.851-16.104,17.33-19.098 c5.488-1.732,11.16-2.026,16.862-2.022c3.876,0.002,7.753,0,11.873,0c0-1.119,0-1.993,0-2.866c0-35.176,0-70.353,0.001-105.529 c0-4.889,1.354-6.233,6.287-6.234c33.081-0.002,66.163-0.002,99.242,0c5.084,0,6.361,1.284,6.362,6.376 c0.002,8.903,0,17.807,0,27.102c0.963,0,1.821,0,2.679,0c16.316,0,32.633,0.038,48.946-0.039c2.686-0.013,4.652,0.769,5.821,3.239 c0,0.898,0,1.796,0,2.694c-0.322,0.651-0.695,1.283-0.955,1.959c-4.727,12.321-9.416,24.656-14.188,36.96 c-0.61,1.572-0.623,2.901,0.01,4.477c4.69,11.694,9.29,23.425,13.937,35.138c0.318,0.802,0.793,1.541,1.196,2.308 c0,0.898,0,1.797,0,2.695c-1.074,2.543-3.047,3.369-5.724,3.365c-31.424-0.041-62.846-0.021-94.27-0.032 c-4.063-0.001-5.568-1.526-5.573-5.548c-0.011-9.875-0.003-19.751-0.003-29.627c0-0.813,0-1.625,0-2.596 c-12.063,0-23.979,0-36.019,0c0,14.101,0,28.144,0,42.37c5.253,0.588,9.5,2.937,12.034,7.729c2.5,4.729,2.245,9.49-0.438,14.374 c3.409,2.598,5.762,5.952,6.34,10.318c0.584,4.408-0.869,8.232-3.587,11.588c6.503,8.695,3.86,17.634-2.782,22.126 c0.336,3.485,1.217,6.694,0.821,9.738c-0.916,7.036-6.753,12.053-14.014,12.099c-14.361,0.091-28.735,0.195-43.083-0.321 c-10.332-0.37-19.621-3.821-26.323-12.389c-0.407-0.52-1.395-0.793-2.123-0.816c-3.139-0.101-6.288-0.171-9.423-0.047 c-2.692,0.107-4.636-0.817-5.787-3.284C21.75,212.223,21.75,192.76,21.75,173.297z M109.989,108.9c25.237,0,50.19,0,75.179,0 c0-23.409,0-46.661,0-70.028c-25.048,0-49.991,0-75.178,0c0,5.455,0.012,10.751-0.005,16.048c-0.008,2.618,0.063,5.246-0.148,7.85 c-0.184,2.259-2.069,3.743-4.302,3.757c-2.24,0.013-4.015-1.447-4.386-3.692c-0.134-0.806-0.134-1.639-0.136-2.459 c-0.01-6.512,0.006-13.023-0.021-19.535c-0.003-0.879,0.395-2.113-1.208-2.118c-2.749-0.009-5.498-0.003-8.301-0.003 c0,40.79,0,81.31,0,121.817c3.227,0,6.313,0,9.524,0c0-1.152,0-2.122,0-3.091c0-17.962-0.011-35.925,0.013-53.888 c0.005-3.342,1.727-5.293,4.478-5.295c2.762-0.003,4.42,1.932,4.483,5.287C110.016,105.327,109.989,107.105,109.989,108.9z M82.278,153.795c-6.937,0-13.659-0.112-20.374,0.066c-2.121,0.056-4.278,0.718-6.321,1.397 c-8.253,2.745-11.803,8.901-10.191,17.434c0.848,4.489-0.813,6.501-5.405,6.522c-3.04,0.014-6.08,0.002-9.144,0.002 c0,15.715,0,31.103,0,46.78c3.3,0,6.495,0.008,9.69-0.002c2.298-0.007,3.741,1.021,5.066,3.004 c1.495,2.235,3.467,4.321,5.648,5.895c4.033,2.904,8.844,4.233,13.728,4.337c14.363,0.302,28.731,0.279,43.098,0.367 c0.589,0.003,1.195-0.122,1.768-0.281c2.361-0.657,3.975-2.763,3.965-5.115c-0.011-2.462-1.717-4.58-4.18-5.175 c-0.579-0.142-1.186-0.193-1.748-0.381c-2.194-0.731-3.345-2.588-3.062-4.864c0.258-2.07,1.88-3.624,4.081-3.785 c1.34-0.099,2.692-0.048,4.039-0.074c3.603-0.07,5.898-1.87,6.225-4.862c0.291-2.655-1.825-5.57-5.161-5.954 c-2.889-0.333-4.463-2.946-3.712-5.584c0.604-2.118,2.188-2.999,4.305-3.362c2.934-0.504,4.804-2.99,4.577-5.745 c-0.24-2.909-2.493-4.905-5.622-4.96c-1.196-0.022-2.397,0.042-3.59-0.033c-2.635-0.17-4.494-1.966-4.582-4.346 c-0.084-2.265,1.568-4.122,4.079-4.588c3.754-0.694,5.617-2.762,5.36-5.948c-0.251-3.113-2.507-4.834-6.358-4.834 c-15.568-0.002-31.134,0.003-46.702-0.004c-3.463-0.002-5.479-1.716-5.427-4.568c0.052-2.733,2.05-4.396,5.38-4.406 c6.063-0.017,12.124-0.005,18.187-0.005c0.787,0,1.573,0,2.384,0C82.278,158.155,82.278,155.93,82.278,153.795z M162.087,146.798 c26.33,0,52.266,0,78.392,0c-0.433-1.134-0.767-2.037-1.119-2.932c-4.036-10.211-8.044-20.433-12.138-30.621 c-0.806-2.006-0.823-3.825-0.027-5.836c2.472-6.25,4.826-12.546,7.224-18.828c2.042-5.356,4.077-10.714,6.191-16.267 c-15.554,0-30.837,0-46.354,0c0,0.923,0,1.728,0,2.534c0,12.42-0.042,24.841,0.036,37.26c0.016,2.364-0.75,4.103-2.44,5.725 c-9.287,8.909-18.504,17.891-27.738,26.853C163.496,145.285,162.92,145.927,162.087,146.798z M155.214,140.784 c7.912-7.67,15.479-15.007,23.332-22.62c-8.074,0-15.654,0-23.332,0C155.214,125.593,155.214,132.897,155.214,140.784z"></path> <path fill-rule="evenodd" clip-rule="evenodd" fill="#5D5D5D" d="M105.646,78.055c2.47,0.068,4.324,2.023,4.285,4.521 c-0.038,2.427-2.066,4.432-4.462,4.412c-2.486-0.02-4.51-2.183-4.398-4.7C101.182,79.809,103.15,77.989,105.646,78.055z"></path> </g> </svg> 