<?xml version="1.0" encoding="UTF-8"?> <svg xmlns="http://www.w3.org/2000/svg" xmlns:xlink="http://www.w3.org/1999/xlink" version="1.1" id="Layer_1" x="0px" y="0px" width="276.047px" height="278.133px" viewBox="0 0 276.047 278.133" xml:space="preserve"> <g> <path fill-rule="evenodd" clip-rule="evenodd" fill="#5D5D5D" d="M85.471,20.929c4.416,1.637,6.318,4.829,6.003,9.493 c-0.129,1.917,0.03,3.851-0.039,5.774c-0.15,4.211-3.016,7.442-7.222,7.538c-7.926,0.18-15.863,0.19-23.79-0.009 c-4.284-0.107-7.041-3.367-7.171-7.824c-0.068-2.3-0.012-4.604-0.012-7.14c-4.257,0-8.377-0.16-12.475,0.074 c-1.801,0.102-2.7,1.765-2.744,3.519c-0.091,3.688-0.028,7.381-0.028,11.38c2.525,0,4.945,0,7.68,0c0,1.281,0,2.256,0,3.23 c0,54.597,0.044,109.195-0.068,163.792c-0.012,5.554,0.692,10.802,2.627,15.996c0.808,2.167,1.085,4.619,1.158,6.956 c0.164,5.289,0.051,10.588,0.051,16.02c10.368,0,20.498,0,30.994,0c6.244-50.866,12.491-101.762,18.769-152.906 c2.575,0.306,4.968,0.59,7.568,0.898c-6.22,50.725-12.415,101.248-18.635,151.971c32.739,0,65.264,0,98.168,0 c-6.204-50.627-12.403-101.195-18.621-151.925c2.533-0.327,4.869-0.629,7.558-0.977c6.262,51.022,12.506,101.914,18.766,152.932 c10.374,0,20.565,0,30.999,0c0-3.495,0.194-6.879-0.042-10.231c-0.446-6.342,0.624-12.364,2.943-18.252 c0.602-1.522,0.833-3.282,0.834-4.934c0.041-56.368,0.033-112.737,0.033-169.105c0-0.99,0-1.979,0-3.293c2.577,0,4.989,0,7.621,0 c0-4.219,0.125-8.119-0.054-12.005c-0.086-1.86-1.383-3.17-3.34-3.223c-3.827-0.104-7.661-0.03-11.788-0.03 c0,2.301,0.016,4.431-0.003,6.562c-0.052,5.552-3.041,8.586-8.575,8.615c-7.007,0.037-14.014,0.035-21.022,0.001 c-5.656-0.027-8.6-3.06-8.616-8.785c-0.005-1.54,0.091-3.086-0.018-4.619c-0.332-4.662,1.58-7.856,5.999-9.491 c15.249,0,30.498,0,45.747,0c7.448,3.023,9.31,5.817,9.311,13.979c0,2.894,0,5.787,0,9.003c2.71,0,5.121,0,7.706,0 c0,1.314,0,2.303,0,3.29c0,56.039,0.019,112.078-0.03,168.118c-0.005,5.076,2.017,9.488,3.809,14.018c0,9.396,0,18.792,0,28.188 c-78.865,0-157.73,0-236.595,0c0-9.396,0-18.792,0-28.188c1.798-4.528,3.813-8.942,3.809-14.021 c-0.049-56.115-0.031-112.232-0.031-168.348c0-0.972,0-1.945,0-3.224c2.742,0,5.165,0,7.719,0c0-4.075-0.002-7.842,0.001-11.609 c0.001-2.734,0.763-5.349,2.772-7.114c1.905-1.672,4.329-2.752,6.525-4.093C54.972,20.929,70.222,20.929,85.471,20.929z M30.414,51.537c0,1.161,0,2.146,0,3.13c0,51.907-0.016,103.814,0.022,155.721c0.004,5.472,0.228,10.93-2.165,16.062 c-0.049,0.104,0.063,0.287,0.103,0.438c3.894,0,7.787,0,12.077,0c-3.995-7.914-2.396-16.189-2.417-24.256 c-0.127-49.365-0.063-98.731-0.063-148.097c0-0.97,0-1.939,0-2.998C35.369,51.537,33.082,51.537,30.414,51.537z M236.483,51.536 c0,1.161,0,2.146,0,3.132c0,52.292-0.02,104.583,0.03,156.875c0.006,5.028,0.021,9.992-2.126,14.683 c-0.079,0.174,0.019,0.429,0.034,0.659c3.932,0,7.818,0,12.103,0c-3.902-7.608-2.412-15.57-2.43-23.332 c-0.11-49.674-0.056-99.346-0.056-149.02c0-0.97,0-1.941,0-2.997C241.446,51.536,239.159,51.536,236.483,51.536z M26.676,249.626 c5.165,0,10.087,0,14.951,0c0-5.118,0-9.989,0-14.813c-5.093,0-9.97,0-14.951,0C26.676,239.829,26.676,244.651,26.676,249.626z M247.747,234.821c-5.081,0-10.022,0-14.949,0c0,5.079,0,9.955,0,14.888c5.068,0,9.949,0,14.949,0 C247.747,244.666,247.747,239.783,247.747,234.821z M61.068,28.71c0,2.59,0,4.929,0,7.312c7.606,0,15.078,0,22.551,0 c0-2.501,0-4.844,0-7.312C76.06,28.71,68.651,28.71,61.068,28.71z M213.406,28.732c-7.644,0-15.055,0-22.532,0 c0,2.54,0,4.928,0,7.325c7.603,0,15.013,0,22.532,0C213.406,33.595,213.406,31.253,213.406,28.732z"></path> <path fill-rule="evenodd" clip-rule="evenodd" fill="#5D5D5D" d="M83.769,188.652c-10.317,0-20.289,0-30.428,0 c-0.039-0.874-0.1-1.624-0.101-2.374c-0.009-4.466,0.197-8.941-0.05-13.392c-0.411-7.405,0.438-14.538,3.373-21.405 c0.491-1.148,0.529-2.552,0.531-3.839c0.031-20.783,0.022-41.567,0.022-62.351c0-0.994,0-1.988,0-3.202c2.509,0,4.862,0,7.381,0 c0.083-0.782,0.192-1.362,0.195-1.944c0.021-3.31-0.071-6.623,0.041-9.929c0.203-6.067,4.844-10.952,10.873-11.014 c14.239-0.145,28.481-0.106,42.721-0.033c4.311,0.022,7.293,3.206,7.394,7.547c0.061,2.616,0.073,5.235-0.008,7.851 c-0.13,4.158-3.213,7.313-7.363,7.358c-7.774,0.083-15.55,0.084-23.323-0.001c-4.141-0.045-7.189-3.178-7.339-7.373 c-0.09-2.521-0.016-5.047-0.016-7.803c-4.139,0-8.042-0.132-11.93,0.055c-1.965,0.095-3.255,1.456-3.297,3.523 c-0.077,3.764-0.021,7.53-0.021,11.52c2.446,0,4.797,0,7.537,0c0,1.101,0,1.981,0,2.863c0,19.629,0.069,39.259-0.054,58.888 c-0.027,4.377,0.414,8.557,2.124,12.594c1.43,3.378,1.863,6.896,1.784,10.576C83.66,173.988,83.769,181.214,83.769,188.652z M64.702,89.782c0,1.133,0,1.972,0,2.811c0,16.458-0.027,32.916,0.016,49.373c0.013,5.224,0.315,10.457-1.965,15.379 c-0.089,0.192-0.045,0.445-0.07,0.759c3.904,0,7.77,0,11.816,0c-0.249-0.913-0.507-1.629-0.634-2.368 c-0.515-2.995-1.392-5.992-1.414-8.994c-0.133-18.072-0.066-36.146-0.066-54.218c0-0.89,0-1.781,0-2.741 C69.679,89.782,67.324,89.782,64.702,89.782z M76.051,181.114c0-5.066,0-10.005,0-14.98c-5.084,0-10.023,0-14.93,0 c0,5.104,0,10.041,0,14.98C66.188,181.114,71.068,181.114,76.051,181.114z M118.034,74.215c0-2.622,0-4.973,0-7.372 c-7.643,0-15.132,0-22.714,0c0,2.504,0,4.856,0,7.372C102.908,74.215,110.396,74.215,118.034,74.215z"></path> <path fill-rule="evenodd" clip-rule="evenodd" fill="#5D5D5D" d="M194.491,81.918c2.683,0,4.972,0,7.481,0 c0-4.115,0.134-8.091-0.055-12.051c-0.098-2.05-1.702-3.083-3.672-3.132c-3.689-0.092-7.381-0.027-11.448-0.027 c0,2.297,0.013,4.497-0.003,6.696c-0.041,5.625-2.941,8.541-8.534,8.553c-7.082,0.015-14.164,0.021-21.245-0.002 c-5.288-0.017-8.263-3.012-8.301-8.314c-0.017-2.386-0.055-4.775,0.022-7.159c0.131-4.078,3.083-7.266,7.157-7.292 c14.393-0.089,28.789-0.136,43.181,0.036c5.965,0.07,10.507,5.097,10.65,11.225c0.089,3.75,0.018,7.505,0.018,11.486 c2.561,0,4.911,0,7.593,0c0,1.116,0,2.006,0,2.897c0,18.783,0.124,37.565-0.072,56.346c-0.063,6.021,0.649,11.736,2.852,17.347 c0.761,1.939,1.018,4.174,1.054,6.281c0.126,7.079,0.048,14.162,0.048,21.244c0,0.825,0,1.649,0,2.604c-10.248,0-20.22,0-30.217,0 c-0.104-0.245-0.264-0.447-0.264-0.649c-0.024-8.621-0.312-17.256,0.094-25.855c0.157-3.34,1.943-6.589,2.861-9.913 c0.423-1.529,0.764-3.143,0.768-4.719c0.05-20.86,0.032-41.721,0.032-62.582C194.491,84.032,194.491,83.127,194.491,81.918z M211.917,158.139c-0.281-0.956-0.595-1.741-0.737-2.557c-0.508-2.916-1.346-5.84-1.365-8.768 c-0.128-18.072-0.064-36.145-0.064-54.218c0-0.899,0-1.799,0-2.751c-2.67,0-5.074,0-7.684,0c0,1.086,0,1.995,0,2.904 c0,17.458-0.048,34.916,0.035,52.373c0.02,3.958-0.144,7.816-1.754,11.499c-0.191,0.436-0.167,0.965-0.253,1.517 C204.101,158.139,207.918,158.139,211.917,158.139z M213.366,181.183c0-5.152,0-10.093,0-15.034c-5.087,0-10.023,0-14.912,0 c0,5.116,0,10.054,0,15.034C203.476,181.183,208.302,181.183,213.366,181.183z M156.338,74.212c7.728,0,15.217,0,22.713,0 c0-2.58,0-4.989,0-7.327c-7.669,0-15.156,0-22.713,0C156.338,69.372,156.338,71.665,156.338,74.212z"></path> <path fill-rule="evenodd" clip-rule="evenodd" fill="#5D5D5D" d="M125.922,143.128c7.577,0,15.008,0,22.627,0 c0,15.131,0,30.23,0,45.501c-7.497,0-14.987,0-22.627,0C125.922,173.519,125.922,158.471,125.922,143.128z M140.895,150.909 c-2.413,0-4.863,0-7.288,0c0,10.155,0,20.118,0,30.202c2.468,0,4.807,0,7.288,0C140.895,171.032,140.895,161.069,140.895,150.909z"></path> <path fill-rule="evenodd" clip-rule="evenodd" fill="#5D5D5D" d="M125.962,196.595c7.603,0,15.048,0,22.635,0 c0,15.159,0,30.219,0,45.476c-7.45,0-14.946,0-22.635,0C125.962,227.038,125.962,211.927,125.962,196.595z M133.665,204.217 c0,10.233,0,20.247,0,30.203c2.526,0,4.863,0,7.26,0c0-10.143,0-20.099,0-30.203C138.476,204.217,136.136,204.217,133.665,204.217z "></path> <path fill-rule="evenodd" clip-rule="evenodd" fill="#5D5D5D" d="M148.611,135.328c-7.596,0-15.034,0-22.655,0 c0-12.63,0-25.207,0-37.947c2.435,0,4.842,0,7.458,0c0,10.057,0,20.035,0,30.185c2.543,0,4.885,0,7.539,0 c0-9.975,0-20.005,0-30.189c2.715,0,5.121,0,7.658,0C148.611,109.998,148.611,122.523,148.611,135.328z"></path> </g> </svg> 