<?xml version="1.0" encoding="UTF-8"?> <svg xmlns="http://www.w3.org/2000/svg" xmlns:xlink="http://www.w3.org/1999/xlink" version="1.1" id="Layer_1" x="0px" y="0px" width="276.047px" height="278.133px" viewBox="0 0 276.047 278.133" xml:space="preserve"> <g> <g> <g> <path fill="#5D5D5D" d="M199.86,140.115l13.117-13.122l-27.762-27.761l-13.121,13.117c-4.577-2.529-9.423-4.503-14.444-5.952 V88.195c12.682-6.824,19.631-18.029,19.631-31.791c0-16.58-10.519-31.441-26.172-36.984l-5.233-1.854v32.081l-7.853,2.619 l-7.853-2.619V17.567l-5.237,1.854c-15.654,5.543-26.172,20.404-26.172,36.984c0,13.761,6.949,24.966,19.63,31.791v18.202 c-5.021,1.453-9.866,3.423-14.444,5.952L90.827,99.232l-27.763,27.761l13.118,13.122c-2.533,4.582-4.539,9.418-5.987,14.444 H51.647v39.261h18.548c1.453,5.026,3.454,9.862,5.987,14.444l-13.118,13.122l27.763,27.762l13.121-13.116 c4.582,2.531,9.419,4.538,14.444,5.986v18.547h39.262v-18.547c5.025-1.452,9.863-3.455,14.444-5.986l13.121,13.116l27.763-27.762 l-13.118-13.122c2.532-4.582,4.539-9.418,5.987-14.444h18.548V154.56h-18.548C204.399,149.533,202.396,144.697,199.86,140.115z M106.614,56.405c0-11.311,6.128-21.625,15.705-27.165v26.07l15.705,5.233l15.705-5.233V29.24 c9.576,5.54,15.704,15.854,15.704,27.165c0,11.515-6.011,20.448-17.385,25.831l-2.246,1.063v63.407h7.853v-6.54 c12.089,6.933,19.631,19.729,19.631,34.023c0,14.496-7.915,27.15-19.631,33.95v-53.58h-7.853v57.081 c-3.722,1.175-7.676,1.812-11.778,1.812c-4.103,0-8.056-0.637-11.778-1.812V83.299l-2.247-1.063 C112.625,76.853,106.614,67.92,106.614,56.405z M216.547,185.969h-16.805l-0.726,3.002c-1.527,6.319-4.021,12.337-7.417,17.886 l-1.613,2.638l11.893,11.889l-16.659,16.658l-11.889-11.893l-2.639,1.614c-5.551,3.396-11.566,5.889-17.883,7.417l-3.008,0.73 v16.803h-23.556V235.91l-3.004-0.727c-6.317-1.528-12.336-4.021-17.883-7.417l-2.638-1.614l-11.889,11.893l-16.66-16.658 l11.893-11.889l-1.613-2.638c-3.396-5.553-5.89-11.566-7.417-17.886l-0.73-3.006H59.5v-23.558h16.805l0.726-3.002 c1.527-6.319,4.02-12.337,7.416-17.886l1.613-2.638l-11.893-11.888l16.66-16.659l11.888,11.892l2.639-1.614 c4.11-2.517,8.48-4.53,13.034-6.026v16.789c-16.776,7.667-27.482,24.173-27.482,42.813c0,25.981,21.134,47.114,47.114,47.114 c25.979,0,47.114-21.133,47.114-47.114c0-18.644-10.707-35.149-27.483-42.813v-16.789c4.555,1.5,8.924,3.514,13.035,6.026 l2.638,1.614l11.889-11.892l16.659,16.659l-11.893,11.888l1.613,2.638c3.396,5.553,5.89,11.566,7.417,17.886l0.733,3.002h16.805 V185.969z M118.392,140.17v67.97c-11.715-6.8-19.63-19.454-19.63-33.95C98.762,159.898,106.303,147.103,118.392,140.17z"></path> <path fill="#5D5D5D" d="M32.017,210.247V68.183c0-2.163,1.762-3.926,3.926-3.926h32.132c1.625,4.559,5.944,7.853,11.057,7.853 c6.493,0,11.778-5.284,11.778-11.778s-5.285-11.779-11.778-11.779c-5.112,0-9.432,3.294-11.057,7.853H35.943 c-6.494,0-11.779,5.285-11.779,11.778v142.064c-4.558,1.626-7.852,5.945-7.852,11.056c0,6.494,5.284,11.78,11.778,11.78 c6.495,0,11.778-5.286,11.778-11.78C39.869,216.192,36.575,211.873,32.017,210.247z M79.131,56.405 c2.163,0,3.926,1.763,3.926,3.926s-1.763,3.926-3.926,3.926c-2.164,0-3.927-1.763-3.927-3.926S76.968,56.405,79.131,56.405z M28.09,225.229c-2.163,0-3.926-1.763-3.926-3.927c0-2.163,1.763-3.925,3.926-3.925c2.164,0,3.927,1.762,3.927,3.925 C32.017,223.467,30.254,225.229,28.09,225.229z"></path> <rect x="39.869" y="72.109" fill="#5D5D5D" width="7.853" height="7.853"></rect> <rect x="39.869" y="87.814" fill="#5D5D5D" width="7.853" height="7.853"></rect> <rect x="39.869" y="103.519" fill="#5D5D5D" width="7.853" height="7.853"></rect> <path fill="#5D5D5D" d="M251.883,210.247V68.183c0-6.494-5.285-11.778-11.779-11.778h-32.132 c-1.624-4.558-5.943-7.853-11.056-7.853c-6.494,0-11.778,5.285-11.778,11.779s5.284,11.778,11.778,11.778 c5.112,0,9.432-3.294,11.056-7.853h32.132c2.164,0,3.926,1.763,3.926,3.926v142.064c-4.558,1.626-7.851,5.945-7.851,11.056 c0,6.494,5.283,11.78,11.777,11.78s11.778-5.286,11.778-11.78C259.734,216.192,256.44,211.873,251.883,210.247z M196.916,64.257 c-2.164,0-3.926-1.763-3.926-3.926s1.762-3.926,3.926-3.926c2.163,0,3.926,1.763,3.926,3.926S199.079,64.257,196.916,64.257z M247.956,225.229c-2.163,0-3.927-1.763-3.927-3.927c0-2.163,1.764-3.925,3.927-3.925c2.164,0,3.927,1.762,3.927,3.925 C251.883,223.467,250.12,225.229,247.956,225.229z"></path> <rect x="228.325" y="72.109" fill="#5D5D5D" width="7.854" height="7.853"></rect> <rect x="228.325" y="87.814" fill="#5D5D5D" width="7.854" height="7.853"></rect> <rect x="228.325" y="103.519" fill="#5D5D5D" width="7.854" height="7.853"></rect> <rect x="134.097" y="197.747" fill="#5D5D5D" width="7.854" height="7.852"></rect> <rect x="134.097" y="182.042" fill="#5D5D5D" width="7.854" height="7.852"></rect> <rect x="134.097" y="166.338" fill="#5D5D5D" width="7.854" height="7.852"></rect> </g> </g> </g> </svg> 