<?xml version="1.0" encoding="UTF-8"?> <svg xmlns="http://www.w3.org/2000/svg" xmlns:xlink="http://www.w3.org/1999/xlink" version="1.1" id="Layer_1" x="0px" y="0px" width="280px" height="280px" viewBox="0 0 280 280" xml:space="preserve"> <g> <path fill-rule="evenodd" clip-rule="evenodd" fill="#5D5D5D" d="M261.977,210.118c-1.408,3.604-4.102,4.855-7.877,4.791 c-8.018-0.14-16.041,0.076-24.059-0.071c-11.723-0.218-22.963,1.883-33.982,5.883c-36.281,13.172-72.627,26.166-108.949,39.228 c-5.269,1.895-7.973,0.6-9.891-4.733c-8.876-24.69-17.752-49.38-26.628-74.068c-1.328-3.695-0.898-5.572,1.491-6.479 c2.286-0.868,3.918,0.382,5.237,4.048c8.644,24.014,17.283,48.031,25.924,72.047c0.289,0.802,0.58,1.602,0.954,2.638 c26.203-9.421,52.198-18.767,78.194-28.113c-0.031-0.124-0.063-0.247-0.092-0.371c-5.895,0.994-11.791,1.976-17.682,2.985 c-15.947,2.735-31.89,5.49-47.837,8.22c-3.756,0.644-6.644-1.422-7.326-5.349c-3.188-18.364-6.333-36.735-9.486-55.105 c-4.375-25.483-8.741-50.968-13.112-76.452c-1.231-7.184-2.464-14.368-3.771-21.986c-12.558,4.304-24.948,8.551-37.545,12.869 c0.326,0.999,0.566,1.803,0.85,2.592c8.067,22.454,16.139,44.906,24.21,67.359c0.214,0.597,0.491,1.182,0.622,1.797 c0.423,1.996-0.353,3.502-2.214,4.209c-1.889,0.718-3.435,0.021-4.391-1.769c-0.37-0.692-0.599-1.464-0.867-2.209 c-8.404-23.343-16.805-46.688-25.212-70.03c-0.131-0.363-0.34-0.697-0.513-1.044c0-1.112,0-2.224,0-3.335 c1.414-2.575,3.713-3.838,6.433-4.738c7.519-2.488,14.983-5.142,22.473-7.72c4.929-1.697,9.865-3.375,14.901-5.098 c-0.669-4.057-1.411-7.94-1.926-11.854c-0.526-4,1.464-6.55,5.444-7.242c5.7-0.992,11.408-1.938,17.11-2.914 c7.556-1.293,15.11-2.597,22.851-3.928c0-5.795-0.006-11.415,0.001-17.035c0.007-5.723,2.156-7.87,7.944-7.871 c37.293-0.007,74.59,0.011,111.883-0.037c2.646-0.003,4.68,0.832,6.576,2.664c9.018,8.709,18.133,17.317,27.18,25.997 c1.129,1.083,2.059,2.371,3.082,3.564C261.977,104.342,261.977,157.23,261.977,210.118z M112.456,207.544 c47.685,0,94.966,0,142.263,0c0-50.252,0-100.329,0-150.69c-0.957,0-1.809,0-2.66,0c-6.67-0.001-13.34,0.04-20.01-0.013 c-7.85-0.063-10.604-2.86-10.617-10.634c-0.004-2.461-0.01-4.923-0.012-7.384c-0.002-4.031,0-8.063,0-12.252 c-36.406,0-72.564,0-108.963,0c0,1.092,0,2.025,0,2.958c-0.001,30.173,0.001,60.346-0.003,90.519c0,3.338-1.103,4.879-3.472,4.918 c-2.426,0.04-3.655-1.641-3.671-5.027c-0.003-0.556,0-1.111,0-1.667c-0.001-21.28-0.001-42.56-0.001-63.84c0-0.935,0-1.869,0-3.01 c-12.901,2.217-25.511,4.384-38.266,6.576c9.792,57.099,19.53,113.894,29.314,170.946c26.788-4.594,53.338-9.146,79.889-13.699 c-0.014-0.126-0.027-0.252-0.041-0.377c-0.947,0-1.895,0-2.842,0c-20.248,0-40.496,0.007-60.744-0.006 c-4.921-0.004-7.299-2.378-7.302-7.323c-0.017-22.789-0.012-45.577-0.002-68.367c0.002-2.959,1.35-4.679,3.578-4.698 c2.24-0.021,3.531,1.661,3.562,4.649c0.008,0.635,0.001,1.27,0.001,1.906c0,21.201,0,42.401,0,63.602 C112.456,205.563,112.456,206.497,112.456,207.544z M228.602,28.853c0,6.817-0.047,13.047,0.084,19.274 c0.01,0.517,1.201,1.434,1.857,1.446c6.26,0.121,12.523,0.089,18.785,0.081c0.172,0,0.342-0.238,0.625-0.448 C242.949,42.53,236.016,35.92,228.602,28.853z"></path> <path fill-rule="evenodd" clip-rule="evenodd" fill="#5D5D5D" d="M184.342,129.118c-16.348,0-32.695,0-49.043,0 c-0.635,0-1.272,0.03-1.904-0.012c-2.2-0.146-3.67-1.612-3.643-3.604c0.026-1.983,1.503-3.381,3.736-3.52 c0.475-0.03,0.952-0.011,1.428-0.011c33.013,0,66.024,0,99.036,0c0.557,0,1.117-0.032,1.666,0.026 c2.016,0.212,3.455,1.739,3.426,3.596c-0.027,1.869-1.475,3.328-3.518,3.504c-0.631,0.055-1.27,0.02-1.904,0.02 C217.193,129.118,200.768,129.118,184.342,129.118z"></path> <path fill-rule="evenodd" clip-rule="evenodd" fill="#5D5D5D" d="M184.58,96.631c16.266,0,32.531,0,48.799,0.002 c0.793,0,1.59-0.031,2.379,0.04c1.949,0.173,3.072,1.37,3.234,3.214c0.164,1.874-0.844,3.186-2.693,3.685 c-0.676,0.182-1.41,0.197-2.119,0.197c-33.166,0.009-66.332,0.011-99.5-0.007c-0.935-0.001-1.934-0.073-2.789-0.406 c-1.581-0.615-2.549-2.056-1.987-3.583c0.443-1.205,1.706-2.236,2.834-3.007c0.604-0.413,1.696-0.132,2.568-0.132 C151.73,96.631,168.154,96.631,184.58,96.631z"></path> <path fill-rule="evenodd" clip-rule="evenodd" fill="#5D5D5D" d="M184.297,154.458c-16.346,0-32.691,0.001-49.036-0.001 c-0.794,0-1.595,0.044-2.378-0.048c-1.819-0.212-2.881-1.307-3.07-3.092c-0.189-1.781,0.6-3.139,2.341-3.669 c0.961-0.293,2.027-0.324,3.047-0.325c32.771-0.015,65.54-0.015,98.312,0c1.02,0,2.084,0.026,3.051,0.308 c1.738,0.508,2.604,1.861,2.428,3.624c-0.174,1.738-1.211,2.915-3.043,3.143c-0.781,0.098-1.584,0.059-2.377,0.059 C217.146,154.459,200.723,154.458,184.297,154.458z"></path> <path fill-rule="evenodd" clip-rule="evenodd" fill="#5D5D5D" d="M184.307,71.197c16.344,0,32.686-0.001,49.031,0.004 c0.871,0,1.756-0.038,2.609,0.104c2.01,0.335,3.131,1.638,3.047,3.626c-0.076,1.856-1.191,3.079-3.125,3.314 c-0.861,0.105-1.74,0.094-2.611,0.095c-32.607,0.004-65.217,0.004-97.823-0.002c-0.95,0-1.917,0.015-2.846-0.149 c-1.815-0.321-2.76-1.563-2.799-3.334c-0.04-1.773,0.853-3.063,2.648-3.459c0.916-0.202,1.89-0.19,2.837-0.191 C151.619,71.193,167.963,71.197,184.307,71.197z"></path> <path fill-rule="evenodd" clip-rule="evenodd" fill="#5D5D5D" d="M184.572,172.796c16.266-0.001,32.529-0.002,48.795,0.002 c0.871,0,1.752-0.027,2.613,0.081c1.834,0.232,2.857,1.428,3.014,3.164c0.158,1.762-0.73,3.094-2.467,3.601 c-0.895,0.261-1.879,0.287-2.822,0.288c-32.846,0.013-65.693,0.011-98.54,0.011c-0.396,0-0.794,0.011-1.189-0.008 c-2.631-0.126-4.182-1.438-4.216-3.558c-0.037-2.222,1.542-3.569,4.354-3.572C150.934,172.789,167.754,172.796,184.572,172.796z"></path> </g> </svg> 