<?xml version="1.0" encoding="UTF-8"?> <svg xmlns="http://www.w3.org/2000/svg" xmlns:xlink="http://www.w3.org/1999/xlink" version="1.1" id="Layer_1" x="0px" y="0px" width="276.047px" height="278.133px" viewBox="0 0 276.047 278.133" xml:space="preserve"> <g> <path fill-rule="evenodd" clip-rule="evenodd" fill="#5D5D5D" d="M206.088,115.021c2.74,0,5.218-0.026,7.693,0.005 c7.029,0.089,12.164,5.143,12.252,12.132c0.064,5.083,0.046,10.167,0.003,15.25c-0.026,3.1-1.515,4.553-4.633,4.604 c-2.477,0.039-4.955,0.007-7.602,0.007c-0.412,5.46-0.821,10.674-1.195,15.889c-1.86,26.007-3.67,52.018-5.586,78.021 c-0.73,9.909-9.293,17.836-19.386,18.063c-5.663,0.125-11.333,0.033-16.999,0.034c-29.249,0.001-58.5-0.219-87.746,0.1 c-13.306,0.145-21.519-9.702-22.093-20.247c-1.254-23.038-3.17-46.039-4.815-69.055c-0.506-7.062-1.006-14.124-1.521-21.187 c-0.035-0.48-0.181-0.953-0.312-1.614c-2.392,0-4.71,0.013-7.028-0.005c-3.714-0.026-5.063-1.395-5.075-5.172 c-0.015-4.832-0.038-9.665,0.005-14.498c0.063-7.158,5.161-12.235,12.318-12.325c1.146-0.015,2.292-0.002,3.674-0.002 c0-2.293,0-4.354,0-6.416c0-7.166-0.079-14.334,0.023-21.499c0.108-7.694,3.542-13.583,10.196-17.458 c1.328-0.773,1.89-1.525,1.819-3.075c-0.132-2.91-0.038-5.831-0.038-8.748c0-6.019,0.775-6.808,6.691-6.808c1.656,0,3.312,0,5.31,0 c0-1.02,0-1.899,0-2.78c0-8.083-0.013-16.166,0.006-24.249c0.008-3.577,1.408-4.958,5.02-4.966c7.333-0.018,14.667-0.02,22,0.001 c3.572,0.01,4.962,1.414,4.969,5.021c0.017,9.333,0.006,18.667,0.006,28c0,0.9,0,1.8,0,2.833c12.005,0,23.805,0,36.002,0 c0-0.819,0-1.693,0-2.565c0-9.334-0.008-18.666,0.003-28c0.003-3.954,1.311-5.285,5.198-5.292c7.001-0.013,14-0.006,21-0.003 c4.626,0.001,5.798,1.15,5.798,5.702c0.004,15.833,0.001,31.666,0.001,47.498c0,0.904,0,1.808,0,2.711 c0.142,0.049,0.283,0.098,0.424,0.146c0.356-0.864,0.731-1.721,1.067-2.593c5.302-13.735,10.593-27.475,15.897-41.21 c1.528-3.961,3.146-4.702,7.105-3.187c7.924,3.029,15.84,6.079,23.749,9.153c3.801,1.477,4.49,3.115,3,6.986 c-8.666,22.513-17.342,45.022-26.011,67.533C206.897,112.75,206.549,113.755,206.088,115.021z M62.447,147.157 c0.087,1.867,0.131,3.597,0.257,5.319c0.583,8.06,1.202,16.113,1.782,24.172c1.482,20.602,2.911,41.207,4.441,61.805 c0.629,8.469,5.171,12.57,13.612,12.57c34.326,0.002,68.652,0.001,102.978,0c0.834,0,1.67,0.024,2.498-0.038 c5.782-0.432,10.561-5.005,11.027-10.75c0.729-8.965,1.34-17.939,1.985-26.912c1.285-17.86,2.565-35.721,3.835-53.582 c0.298-4.186,0.541-8.375,0.811-12.584C157.73,147.157,110.191,147.157,62.447,147.157z M126.045,90.863 c0-4.926-0.006-9.667,0.002-14.41c0.008-4.13,1.269-5.424,5.309-5.434c4.5-0.01,8.999-0.013,13.497,0.001 c3.876,0.013,5.181,1.348,5.19,5.306c0.012,4.821,0.003,9.643,0.003,14.422c8.966,1.918,11.999,5.698,12,14.766 c0,3.133,0,6.267,0,9.365c5.002,0.355,5.002,0.354,6.674-3.974c1.439-3.724,2.973-7.415,4.277-11.184 c0.585-1.688,1.001-3.532,1.006-5.306c0.067-21.412,0.043-42.824,0.043-64.238c0-0.976,0-1.952,0-3.007c-5.44,0-10.633,0-16,0 c0,1.053,0,1.957,0,2.859c0,9.249,0.008,18.497-0.004,27.745c-0.006,3.908-1.339,5.236-5.262,5.238 c-13.831,0.009-27.662,0.009-41.492,0c-3.914-0.002-5.237-1.332-5.241-5.253c-0.011-9.333-0.003-18.664-0.003-27.995 c0-0.877,0-1.755,0-2.625c-5.5,0-10.632,0-15.883,0c0,7.995,0,15.866,0,23.755c2.916,0.649,3.994,2.474,3.908,5.302 c-0.109,3.579-0.117,7.168,0.041,10.744c0.038,0.848,0.708,2.002,1.435,2.433c6.898,4.097,10.428,10.105,10.484,18.101 c0.061,8.249,0.014,16.497,0.015,24.746c0,0.882,0,1.764,0,2.601c2.86,0,5.388,0,8,0c0-3.525-0.001-6.854,0-10.183 C114.05,96.489,117.763,92.153,126.045,90.863z M217.862,138.93c0.095-0.424,0.161-0.582,0.162-0.741 c0.013-2.997,0.022-5.995,0.023-8.994c0.002-5.14-1.017-6.174-6.073-6.174c-51.976-0.001-103.952-0.001-155.927,0.001 c-0.832,0-1.875-0.285-2.454,0.105c-1.281,0.862-3.201,1.987-3.313,3.152c-0.401,4.171-0.157,8.404-0.157,12.65 C106.178,138.93,161.959,138.93,217.862,138.93z M205.989,36.461c-10.088,26.19-20.111,52.213-30.218,78.453 c7.433,0,14.488,0,21.719,0c9.109-23.655,18.231-47.346,27.404-71.166C218.419,41.252,212.317,38.9,205.989,36.461z M154.046,114.919c0-3.38,0.001-6.531,0-9.683c-0.001-5.248-0.971-6.208-6.275-6.217c-4.569-0.009-5.719-1.167-5.724-5.77 c-0.002-1.998,0-3.997,0-5.994c0-2.71,0-5.422,0-8.112c-2.836,0-5.302,0-8.001,0c0,4.012-0.101,7.906,0.023,11.792 c0.198,6.184-0.112,8.696-7.687,8.118c-2.29-0.174-4.07,1.093-4.208,3.376c-0.25,4.119-0.071,8.262-0.071,12.49 C132.792,114.919,143.252,114.919,154.046,114.919z M66.154,98.842c10.727,0,21.242,0,31.685,0c0-2.706,0-5.231,0-7.691 c-10.662,0-21.118,0-31.685,0C66.154,93.745,66.154,96.21,66.154,98.842z M66.16,114.849c10.708,0,21.225,0,31.686,0 c0-2.699,0-5.225,0-7.703c-10.657,0-21.113,0-31.686,0C66.16,109.735,66.16,112.199,66.16,114.849z M67.145,82.893 c9.944,0,19.862,0,29.813,0c-1.084-4.28-5.337-7.59-10.189-7.813c-3.153-0.145-6.324-0.146-9.477,0.002 C72.45,75.31,68.119,78.701,67.145,82.893z M85.994,59.178c-2.748,0-5.268,0-7.768,0c0,2.684,0,5.204,0,7.635 c2.709,0,5.231,0,7.768,0C85.994,64.207,85.994,61.805,85.994,59.178z"></path> <path fill-rule="evenodd" clip-rule="evenodd" fill="#5D5D5D" d="M144.042,222.902c6.444,0,12.533,0,18.981,0 c-2.152-3.75-4.298-7.191-6.104-10.801c-0.59-1.177-0.783-2.986-0.315-4.175c1.108-2.824,5.029-3.117,6.666-0.449 c3.6,5.882,7.05,11.863,10.311,17.938c1.523,2.838-0.581,5.563-4.092,5.589c-7.572,0.056-15.145,0.018-22.716,0.02 c-0.795,0-1.591,0-2.824,0c0.47,0.603,0.659,0.831,0.834,1.071c1.695,2.338,1.625,4.455-0.195,5.971 c-1.735,1.445-3.839,1.252-5.785-0.643c-2.445-2.378-4.869-4.781-7.234-7.24c-2.092-2.175-2.083-4.155,0.017-6.334 c2.368-2.456,4.787-4.862,7.233-7.241c1.939-1.886,4.057-2.072,5.787-0.615c1.809,1.521,1.868,3.626,0.164,5.975 C144.595,222.207,144.405,222.436,144.042,222.902z"></path> <path fill-rule="evenodd" clip-rule="evenodd" fill="#5D5D5D" d="M114.573,206.407c-3.286,5.691-6.332,10.97-9.591,16.617 c4.34,0,8.222-0.016,12.104,0.003c3.128,0.017,4.961,1.536,4.938,4.03c-0.024,2.481-1.856,3.952-5.013,3.961 c-5.992,0.018-11.985,0.029-17.978-0.003c-4.467-0.024-6.175-2.918-3.972-6.791c3.617-6.36,7.309-12.677,10.962-19.017 c0.449-0.778,0.851-1.583,1.377-2.566c-0.687,0-1.142-0.022-1.594,0.005c-2.499,0.14-4.204-1.029-4.629-3.191 c-0.384-1.948,0.784-3.854,3.013-4.517c3.503-1.039,7.029-2.021,10.585-2.86c2.748-0.646,4.46,0.475,5.252,3.234 c0.87,3.035,1.672,6.088,2.476,9.141c0.843,3.2,0.079,5.273-2.186,6.043C117.849,211.334,116.031,210.169,114.573,206.407z"></path> <path fill-rule="evenodd" clip-rule="evenodd" fill="#5D5D5D" d="M143.574,187.54c-3.24-5.614-6.253-10.835-9.521-16.499 c-1.896,3.274-3.572,6.187-5.268,9.088c-0.544,0.933-1.032,1.928-1.731,2.731c-1.45,1.669-3.29,1.976-5.141,0.776 c-1.724-1.115-2.522-2.899-1.496-4.756c3.375-6.11,6.802-12.199,10.47-18.136c1.688-2.733,5.109-2.259,6.898,0.778 c3.796,6.446,7.496,12.949,11.242,19.427c0.442,0.767,0.919,1.513,1.545,2.539c0.427-0.963,0.637-1.654,1.011-2.241 c1.136-1.786,2.832-2.346,4.763-1.661c1.959,0.697,2.982,2.32,2.527,4.332c-0.876,3.887-1.924,7.743-3.094,11.553 c-0.68,2.209-2.542,3.08-5.035,2.492c-3.394-0.804-6.759-1.737-10.114-2.694c-2.567-0.733-3.875-2.607-3.441-4.716 c0.459-2.24,2.175-3.328,4.898-3.112C142.412,187.467,142.738,187.484,143.574,187.54z"></path> </g> </svg> 