<?xml version="1.0" encoding="UTF-8"?> <svg xmlns="http://www.w3.org/2000/svg" xmlns:xlink="http://www.w3.org/1999/xlink" version="1.1" id="Layer_1" x="0px" y="0px" width="280px" height="280px" viewBox="0 0 280 280" xml:space="preserve"> <g> <path fill-rule="evenodd" clip-rule="evenodd" fill="#5D5D5D" d="M146.521,23.75c5.143,0.731,10.316,1.291,15.421,2.225 c16.89,3.091,32.251,9.839,46.101,19.94c14.827,10.815,26.374,24.482,34.803,40.783c0.239,0.46,0.459,0.931,0.79,1.607 c-1.222,0.609-2.346,1.169-3.471,1.728c-1.074,0.535-2.149,1.066-3.415,1.693c-6.705-13.376-15.646-24.953-27.023-34.569 c-3.491-2.952-7.253-5.585-11.074-8.506c-1.925,2.875-3.63,5.419-5.463,8.155c-2.163-1.443-4.207-2.804-6.4-4.267 c1.707-2.589,3.354-5.086,5.079-7.7c-15.021-8.187-30.926-12.492-48.156-13.164c0,2.447,0,4.818,0,7.344c-2.732,0-5.167,0-7.876,0 c0-2.429,0-4.81,0-7.384c-17.211,0.637-33.063,5.06-48.172,13.251c1.677,2.583,3.294,5.077,4.973,7.665 c-2.108,1.41-4.11,2.748-6.36,4.252c-1.736-2.571-3.447-5.107-5.309-7.867c-12.942,8.43-23.528,19.031-32.041,32.029 c2.675,1.797,5.214,3.503,7.882,5.294c-1.481,2.22-2.846,4.264-4.264,6.39c-2.579-1.689-5.026-3.29-7.631-4.996 c-8.209,15.018-12.601,30.879-13.283,48.153c3.807,0,7.528,0,11.359,0c0,2.726,0,5.101,0,7.748c-3.766,0-7.431,0-11.347,0 c0.619,17.274,5.062,33.161,13.257,48.251c2.609-1.709,5.055-3.311,7.641-5.004c1.417,2.12,2.782,4.162,4.268,6.386 c-2.659,1.788-5.199,3.495-7.716,5.188c4.762,9.502,21.438,26.23,31.951,32.026c1.688-2.509,3.392-5.042,5.22-7.76 c2.17,1.448,4.213,2.812,6.399,4.271c-1.668,2.527-3.274,4.961-5.022,7.608c14.989,8.221,30.848,12.593,48.107,13.307 c0-2.471,0-4.905,0-7.447c2.74,0,5.13,0,7.809,0c0,2.395,0,4.767,0,7.116c12.317,0.589,34.14-4.485,48.238-12.989 c-1.647-2.504-3.292-5.003-4.998-7.594c2.137-1.431,4.139-2.769,6.385-4.272c1.768,2.629,3.512,5.222,5.357,7.967 c16.731-10.896,29.285-25.238,38.231-42.883c2.326,1.156,4.475,2.225,6.913,3.436c-1.355,2.514-2.563,4.994-3.979,7.349 c-15.739,26.148-38.118,43.908-67.44,52.48c-7.403,2.164-15.227,2.888-22.857,4.265c-0.957,0.174-1.923,0.299-2.884,0.446 c-4.53,0-9.061,0-13.591,0c-0.583-0.128-1.159-0.333-1.749-0.373c-18.142-1.28-35.114-6.47-50.599-15.959 c-30.045-18.413-48.536-44.96-55.027-79.69c-0.812-4.346-1.213-8.771-1.806-13.158c0-4.53,0-9.061,0-13.591 c0.185-1.63,0.374-3.259,0.555-4.89c2.776-24.956,12.308-46.972,29.129-65.637c17.859-19.818,39.987-32.189,66.316-36.85 c4.363-0.772,8.786-1.211,13.181-1.804C137.461,23.75,141.991,23.75,146.521,23.75z"></path> <path fill-rule="evenodd" clip-rule="evenodd" fill="#5D5D5D" d="M255.702,164.189c-1.28,2.089-3.206,2.669-5.563,2.656 c-10.192-0.058-20.385,0.01-30.576-0.063c-1.549-0.01-2.414,0.486-3.229,1.793c-21.855,34.951-73.884,33.181-93.268-3.152 c-1.881-3.525-0.21-6.313,3.877-6.325c12.004-0.031,24.009-0.037,36.013,0.021c1.563,0.007,2.665-0.459,3.756-1.567 c5.82-5.911,11.712-11.75,17.692-17.729c-0.514-0.59-0.917-1.11-1.378-1.572c-5.494-5.503-10.958-11.038-16.541-16.45 c-0.807-0.782-2.187-1.366-3.308-1.375c-11.853-0.098-23.709-0.228-35.557,0.022c-4.702,0.099-6.48-3.197-4.172-7.243 c20.393-35.753,71.01-36.978,93.011-2.141c0.733,1.162,1.499,1.607,2.878,1.599c10.268-0.06,20.536,0.001,30.803-0.057 c2.356-0.014,4.282,0.567,5.563,2.655C255.702,131.571,255.702,147.881,255.702,164.189z M247.868,159.087 c0-13.021,0-25.738,0-38.722c-0.924,0-1.732,0-2.54,0c-8.906,0-17.82-0.228-26.712,0.099c-4.206,0.154-6.645-1.267-8.627-4.912 c-3.646-6.699-9.059-11.943-15.674-15.631c-16.411-9.148-32.825-8.88-48.897,0.96c-4.762,2.916-8.777,6.747-12.209,11.736 c1.176,0,1.978,0,2.78,0c9.659,0,19.319,0.045,28.979-0.032c2.363-0.019,4.156,0.739,5.812,2.422 c6.882,6.991,13.855,13.893,20.786,20.836c3.039,3.045,3.03,4.729-0.037,7.801c-6.933,6.941-13.907,13.843-20.785,20.838 c-1.667,1.695-3.485,2.384-5.831,2.366c-9.661-0.07-19.321-0.029-28.98-0.028c-0.787,0-1.574,0-2.781,0 c0.632,0.854,0.964,1.327,1.32,1.78c5.009,6.367,11.262,11.159,18.801,14.057c15.02,5.771,29.415,4.329,42.993-4.373 c6.419-4.115,11.307-9.7,14.995-16.332c1.163-2.094,2.767-2.925,5.147-2.897c7.696,0.086,15.396,0.032,23.093,0.031 C242.206,159.087,244.913,159.087,247.868,159.087z"></path> <path fill-rule="evenodd" clip-rule="evenodd" fill="#5D5D5D" d="M92.545,82.658c-3.363,3.354-6.56,6.542-9.904,9.877 c1.05,1.102,1.595,1.697,2.165,2.268c5.709,5.714,11.427,11.42,17.13,17.14c2.496,2.503,2.515,3.584,0.936,6.805 c-1.454,2.965-2.761,6.021-3.872,9.131c-1.198,3.346-2.016,4.125-5.515,4.128c-8.824,0.008-17.647,0.002-26.82,0.002 c0,5.146,0,10.148,0,15.432c0.958,0,1.763,0,2.569,0c8.078,0,16.154-0.006,24.232,0.002c3.516,0.003,4.342,0.774,5.528,4.111 c1.08,3.042,2.321,6.047,3.757,8.936c1.763,3.546,1.743,4.463-1.12,7.327c-6.131,6.135-12.268,12.267-18.903,18.9 c3.373,3.258,6.657,6.428,10.119,9.771c0.76-0.714,1.356-1.243,1.918-1.805c5.716-5.708,11.421-11.426,17.14-17.13 c2.531-2.525,3.607-2.546,6.799-1.004c3.109,1.501,6.324,2.801,9.562,4.004c2.866,1.064,3.734,2.041,3.741,5.133 c0.014,8.153,0.005,16.307,0.005,24.458c0,0.816,0,1.632,0,2.555c19.135,1.873,36.208-2.938,51.767-14.179 c1.521,2.008,2.998,3.957,4.474,5.905c-25.381,20.653-69.331,24.148-100.954-2.858c-35.021-29.908-37.751-80.449-9.892-113.717 c29.301-34.988,78.602-37.688,110.919-12.999c-1.455,1.968-2.914,3.941-4.505,6.092c-15.461-11.193-32.591-16.084-51.809-14.193 c0,0.902,0,1.715,0,2.528c0,8.153,0.009,16.307-0.004,24.46c-0.005,3.111-0.867,4.082-3.718,5.15 c-3.305,1.238-6.577,2.594-9.76,4.112c-2.916,1.389-4.141,1.361-6.448-0.935c-5.779-5.751-11.534-11.526-17.302-17.287 C94.251,84.254,93.699,83.753,92.545,82.658z M116.651,95.045c1.963-0.805,4.234-1.628,6.388-2.691 c0.597-0.294,1.176-1.288,1.197-1.978c0.115-3.771,0.055-7.548,0.055-11.324c0-3.603,0-7.207,0-11.019 c-9.05,1.931-17.15,5.379-24.474,10.176C105.375,83.768,110.913,89.307,116.651,95.045z M68.028,124.289 c7.833,0,15.302,0.019,22.77-0.043c0.504-0.003,1.252-0.501,1.463-0.963c1.059-2.308,1.977-4.681,2.802-6.685 c-5.704-5.697-11.245-11.232-16.829-16.81C73.413,107.124,69.98,115.223,68.028,124.289z M78.278,179.756 c5.697-5.653,11.257-11.174,16.85-16.725c-0.901-2.199-1.792-4.511-2.816-6.763c-0.219-0.48-0.92-1.052-1.403-1.057 c-7.541-0.065-15.083-0.047-22.883-0.047C69.948,164.164,73.396,172.265,78.278,179.756z M124.289,211.424 c0-7.832,0.019-15.301-0.043-22.77c-0.003-0.504-0.501-1.251-0.964-1.463c-2.308-1.06-4.682-1.978-6.685-2.803 c-5.697,5.704-11.231,11.247-16.809,16.831C107.125,206.039,115.223,209.472,124.289,211.424z"></path> <path fill-rule="evenodd" clip-rule="evenodd" fill="#5D5D5D" d="M140.028,128.17c6.419,0.257,11.467,5.548,11.261,11.802 c-0.216,6.498-5.661,11.634-11.978,11.297c-6.451-0.343-11.426-5.66-11.135-11.901C128.478,132.93,133.78,127.92,140.028,128.17z M143.497,139.793c0.033-2.08-1.531-3.752-3.591-3.838c-2.171-0.091-3.917,1.544-3.951,3.704c-0.034,2.079,1.53,3.752,3.59,3.838 C141.718,143.588,143.462,141.953,143.497,139.793z"></path> </g> </svg> 