<?xml version="1.0" encoding="UTF-8"?> <svg xmlns="http://www.w3.org/2000/svg" xmlns:xlink="http://www.w3.org/1999/xlink" version="1.1" id="Layer_1" x="0px" y="0px" width="276.047px" height="278.133px" viewBox="0 0 276.047 278.133" xml:space="preserve"> <g> <path fill-rule="evenodd" clip-rule="evenodd" fill="#5D5D5D" d="M58.719,258.702c-2.479,0-4.958,0-7.437,0 c-0.67-0.163-1.364-0.265-2.007-0.502c-3.536-1.299-7.135-2.47-10.561-4.018c-1.891-0.854-2.258-2.905-1.345-4.568 c0.905-1.65,2.729-2.244,4.604-1.466c0.498,0.207,0.951,0.517,1.432,0.766c9.569,4.956,20.884,3.268,28.499-4.324 c3.763-3.751,6.166-8.22,6.87-13.506c-3.914-0.366-7.651-0.717-11.374-1.065c-2.511,6.725-6.767,10.105-12.669,10.089 c-5.327-0.016-10.097-3.374-11.945-8.41c-2.119-5.777-0.27-10.625,5.94-15.835c-1.373-3.547-2.723-7.037-4.175-10.791 c-1.51,0.941-3.08,1.762-4.473,2.814c-9.711,7.339-12.391,19.977-6.673,31.213c1.248,2.452,0.867,4.452-1.036,5.433 c-1.912,0.985-3.837,0.216-5.113-2.155c-3.132-5.819-4.511-12.029-3.617-18.6c1.633-12.022,8.113-20.464,19.144-25.494 c0.606-0.276,1.284-1.309,1.245-1.948c-0.339-5.562-0.829-11.116-1.285-16.671c-1.492-18.208-2.986-36.416-4.484-54.623 c-0.373-4.52-0.762-9.038-1.146-13.586c-7.314-0.16-12.822-3.08-16.268-9.335c-0.954-1.731-1.411-3.735-2.096-5.614 c0-1.705,0-3.408,0-5.112c0.164-0.509,0.341-1.013,0.488-1.526c2.13-7.423,6.958-12.375,14.609-12.971 c4.388-0.342,5.795-1.993,6.664-5.748c0.627-2.712,2.042-5.243,3.188-8.054c-1.309,0-2.391,0.047-3.467-0.008 c-3.664-0.188-6.352-1.995-7.829-5.289c-1.51-3.37-1.269-6.824,1.302-9.547c4.78-5.062,9.711-9.99,14.769-14.774 c2.643-2.5,6.014-2.796,9.335-1.393c3.428,1.449,5.264,4.195,5.534,7.92c0.081,1.116,0.012,2.242,0.012,3.481 c0.518-0.136,0.748-0.156,0.94-0.252c15.354-7.648,30.743-7.797,46.187-0.256c0.488,0.238,1.229,0.392,1.684,0.196 c3.5-1.513,6.958-3.121,10.542-4.751c-0.574-0.602-1.146-1.215-1.733-1.815c-1.805-1.841-2.887-3.988-2.879-6.624 c0.015-4.883,2.909-7.545,7.082-9.232c7.746,0,15.492,0,23.237,0c0.18,0.133,0.341,0.312,0.542,0.392 c7.132,2.834,8.736,10.122,3.44,15.651c-0.551,0.574-1.081,1.168-1.522,1.645c3.584,1.63,7,3.072,10.302,4.74 c1.235,0.625,2.092,0.695,3.363,0.055c15.167-7.627,30.438-7.76,45.768-0.446c0.52,0.249,1.062,0.453,1.778,0.755 c0-1.264-0.041-2.27,0.006-3.271c0.183-3.834,2.003-6.668,5.518-8.17c3.408-1.456,6.811-1.083,9.521,1.502 c4.982,4.753,9.869,9.617,14.598,14.624c2.572,2.725,2.829,6.174,1.327,9.548c-1.468,3.297-4.152,5.114-7.816,5.308 c-1.115,0.059-2.236,0.009-3.322,0.009c1.427,3.909,2.91,7.47,3.989,11.15c0.541,1.847,1.298,2.332,3.16,2.331 c8.278-0.005,14.988,5.211,17.096,13.061c0.159,0.591,0.36,1.172,0.541,1.758c0,1.704,0,3.408,0,5.112 c-0.151,0.434-0.332,0.86-0.452,1.303c-2.049,7.57-6.964,12.014-14.653,13.401c-1.041,0.188-2.11,0.208-3.292,0.318 c-2.355,28.801-4.701,57.473-7.049,86.153c0.767,0.36,1.387,0.666,2.021,0.946c12.153,5.399,19.629,17.758,18.718,30.954 c-0.909,13.16-10.313,24.563-23.147,28.051c-1.397,0.38-2.808,0.716-4.212,1.072c-2.634,0-5.268,0-7.901,0 c-0.499-0.158-0.989-0.361-1.499-0.469c-12.838-2.716-21.141-10.391-24.867-22.934c-1.319-4.44-1.176-4.482-5.834-4.482 c-32.054,0-64.109,0.012-96.163-0.033c-1.729-0.004-2.413,0.299-2.829,2.241c-2.755,12.89-10.552,21.185-23.287,24.759 C61.083,258.113,59.897,258.397,58.719,258.702z M231.289,111.376c-1.058,0-1.888,0-2.718,0c-12.392,0-24.783,0-37.176-0.001 c-0.697,0-1.406,0.061-2.087-0.049c-1.952-0.313-3.102-1.546-3.075-3.479c0.025-1.93,1.197-3.138,3.161-3.403 c0.686-0.094,1.391-0.037,2.088-0.037c15.878-0.001,31.754,0.019,47.631-0.016c4.339-0.009,7.607-2.022,9.528-5.896 c1.844-3.717,1.449-7.407-0.992-10.742c-2.335-3.188-5.637-4.288-9.539-4.285c-66.914,0.034-133.83,0.024-200.744,0.025 c-0.62,0-1.24-0.014-1.858,0.025c-5.393,0.341-9.699,4.859-9.779,10.248c-0.092,6.13,4.651,10.634,11.274,10.635 c45.617,0.009,91.233,0.005,136.852,0.005c3.667,0,5.234,1.002,5.297,3.381c0.066,2.475-1.583,3.59-5.322,3.59 c-42.209,0-84.418,0-126.628,0c-0.964,0-1.928,0-3.051,0c0.747,9.333,1.453,18.281,2.182,27.229 c1.34,16.435,2.679,32.869,4.051,49.301c0.458,5.475,0.591,11.022,1.617,16.395c2.235,11.707,12.309,19.532,24.574,19.538 c40.737,0.021,81.475,0.008,122.213,0.006c0.696,0,1.394-0.006,2.09-0.037c11.472-0.507,21.574-9.65,22.828-21.016 c0.976-8.845,1.58-17.731,2.315-26.603c1.353-16.277,2.684-32.557,4.015-48.837C230.462,122.123,230.856,116.89,231.289,111.376z M178.237,76.445c-1.331-16.579-22.201-32.932-41.727-32.766c-19.465,0.165-40.111,16.571-41.174,32.766 C122.97,76.445,150.602,76.445,178.237,76.445z M169.984,48.502c3.325,4.34,7.045,8.362,9.759,12.976 c2.704,4.597,4.4,9.787,6.616,14.896c13.948,0,28.378,0,42.841,0C222.839,50.484,192.785,36.718,169.984,48.502z M46.272,76.366 c13.983,0,27.792,0,41.605,0c2.51-11.343,8.245-20.63,16.967-28.193C80.397,37.125,52.038,51.942,46.272,76.366z M226.721,215.918 c5.944,4.545,7.964,9.522,6.149,15.271c-1.561,4.942-6.231,8.597-11.371,8.896c-6.136,0.359-10.321-2.77-13.521-10.064 c-3.749,0.354-7.475,0.706-11.198,1.059c0.617,10.287,11.198,20.001,22.412,20.608c12.864,0.696,23.563-8.162,25.671-21.253 c1.639-10.182-5.442-22.666-14.105-25.02C229.433,208.86,228.111,212.298,226.721,215.918z M136.761,27.724 c-3.085,0-6.175-0.083-9.254,0.06c-0.774,0.035-1.886,0.635-2.164,1.272c-0.281,0.642,0.171,1.701,0.512,2.485 c0.231,0.528,0.89,0.85,1.253,1.342c2.375,3.22,5.408,3.85,9.442,4.104c4.972,0.313,7.952-1.589,10.733-4.959 c0.05-0.059,0.138-0.101,0.158-0.166c0.293-0.959,0.981-2.046,0.735-2.843c-0.191-0.619-1.534-1.196-2.393-1.239 C142.783,27.631,139.771,27.722,136.761,27.724z M56.393,44.575c0-1.693,0.152-2.882-0.054-4.006 c-0.135-0.736-0.644-1.701-1.249-1.971c-0.61-0.273-1.818-0.093-2.297,0.371c-4.611,4.472-9.171,9-13.635,13.621 c-1.298,1.345-0.555,3.401,1.24,3.46c4.173,0.137,8.765,1.362,11.474-3.498c0.325-0.583,0.916-1.071,1.484-1.456 C55.887,49.383,57.231,47.191,56.393,44.575z M230.722,56.151c1.561,0,2.609,0.176,3.561-0.052 c0.872-0.209,1.984-0.674,2.349-1.365c0.299-0.564-0.086-1.882-0.616-2.431c-4.307-4.45-8.688-8.83-13.141-13.133 c-0.547-0.528-1.807-0.852-2.455-0.586c-0.641,0.262-1.25,1.367-1.313,2.147c-0.353,4.4-0.676,8.859,4.119,11.442 c0.324,0.175,0.591,0.514,0.804,0.83C225.782,55.588,228.037,56.993,230.722,56.151z M54.71,233.127 c2.528,0.025,4.709-1.609,5.563-4.071c0.46-1.324,0.378-2.233-1.027-3.039c-1.588-0.908-3.082-2.059-4.406-3.326 c-1.146-1.096-2.09-0.977-3.245-0.207c-2.122,1.417-3.109,4.069-2.368,6.465C50,231.44,52.181,233.103,54.71,233.127z M226.486,226.576c-0.24-0.532-0.592-1.821-1.326-2.836c-1.619-2.241-2.952-2.277-5.063-0.555 c-1.308,1.067-2.822,1.897-4.043,3.047c-0.58,0.546-1.079,1.659-0.947,2.395c0.512,2.84,3.292,4.756,6.115,4.475 C224.163,232.81,226.468,230.285,226.486,226.576z"></path> <path fill-rule="evenodd" clip-rule="evenodd" fill="#5D5D5D" d="M154.307,146.19c0.257-1.416,0.361-2.264,0.571-3.082 c0.502-1.946,1.841-2.84,3.789-2.617c1.88,0.216,3.092,1.486,2.946,3.292c-0.393,4.852-0.941,9.699-1.662,14.514 c-0.3,2.014-2.538,3.044-4.6,2.207c-4.222-1.715-8.393-3.56-12.529-5.471c-1.817-0.839-2.448-2.805-1.725-4.512 c0.701-1.652,2.571-2.42,4.497-1.811c0.712,0.225,1.398,0.527,2.73,1.036c-2.192-3.698-3.858-6.99-5.981-9.956 c-2.333-3.259-7.198-2.8-9.393,0.732c-1.957,3.151-3.721,6.42-5.597,9.621c-1.416,2.415-3.23,3.151-5.11,2.133 c-1.991-1.078-2.345-3.115-0.923-5.612c1.797-3.157,3.566-6.334,5.456-9.436c5.367-8.811,16.941-8.811,22.308-0.008 C150.806,140.041,152.412,142.93,154.307,146.19z"></path> <path fill-rule="evenodd" clip-rule="evenodd" fill="#5D5D5D" d="M108.868,168.202c-1.423,0.516-2.121,0.813-2.843,1.022 c-1.922,0.557-3.379-0.112-4.213-1.884c-0.809-1.718-0.368-3.443,1.255-4.219c4.455-2.128,8.995-4.091,13.591-5.895 c1.816-0.713,3.761,0.63,4.067,2.741c0.667,4.587,1.179,9.199,1.595,13.816c0.179,1.992-1.282,3.479-3.131,3.631 c-1.908,0.156-3.367-1.006-3.753-3.012c-0.128-0.663-0.211-1.334-0.888-2.217c-1.853,3.469-4.068,6.8-5.449,10.446 c-1.224,3.231,1.736,6.722,5.325,6.835c3.787,0.119,7.581,0.021,11.37,0.05c2.825,0.021,4.508,1.412,4.442,3.607 c-0.065,2.11-1.656,3.342-4.409,3.353c-3.79,0.015-7.583,0.072-11.371-0.024c-9.58-0.244-15.431-10.088-11.047-18.622 C104.991,174.756,106.817,171.805,108.868,168.202z"></path> <path fill-rule="evenodd" clip-rule="evenodd" fill="#5D5D5D" d="M150.57,196.482c1.114,0.919,1.768,1.398,2.351,1.95 c1.403,1.333,1.623,3.454,0.433,4.809c-1.303,1.482-2.984,1.792-4.577,0.676c-3.735-2.618-7.425-5.311-11.014-8.125 c-2.173-1.705-1.975-4.074,0.354-5.845c3.325-2.526,6.695-4.996,10.08-7.441c1.967-1.422,3.892-1.264,5.16,0.302 c1.3,1.607,0.92,3.66-0.979,5.252c-0.406,0.341-0.826,0.667-1.568,1.265c4.238,0,8.16,0.39,11.965-0.112 c3.624-0.478,5.279-4.857,3.468-8.272c-1.736-3.276-3.68-6.443-5.515-9.668c-1.426-2.507-1.118-4.553,0.813-5.627 c1.966-1.097,3.762-0.352,5.261,2.227c1.787,3.074,3.608,6.13,5.316,9.248c5.018,9.17-0.836,19.216-11.265,19.355 C157.638,196.518,154.422,196.482,150.57,196.482z"></path> </g> </svg> 