<?xml version="1.0" encoding="UTF-8"?> <svg xmlns="http://www.w3.org/2000/svg" xmlns:xlink="http://www.w3.org/1999/xlink" width="62px" height="81px" viewBox="0 0 62 81" version="1.1"><g id="surface1"><path style=" stroke:none;fill-rule:nonzero;fill:rgb(36.470588%,36.470588%,36.470588%);fill-opacity:1;" d="M 17.570312 9.050781 C 17.570312 7.929688 18.460938 7.121094 19.460938 7.121094 L 22.539062 7.121094 C 23.628906 7.121094 24.429688 8.03125 24.429688 9.050781 C 24.429688 10.070312 23.539062 10.980469 22.539062 10.980469 L 19.460938 10.980469 C 18.371094 10.980469 17.570312 10.171875 17.570312 9.050781 Z M 60.660156 75.511719 C 60.261719 74.800781 57.980469 71.339844 55.601562 67.679688 L 58.28125 68.191406 C 59.269531 68.390625 60.269531 67.679688 60.460938 66.671875 C 60.648438 65.660156 59.960938 64.640625 58.96875 64.429688 L 51.921875 63.011719 C 51.320312 62.910156 50.730469 63.109375 50.230469 63.519531 L 49.929688 63.820312 C 49.828125 63.921875 49.828125 64.019531 49.730469 64.121094 C 49.730469 64.21875 49.628906 64.320312 49.628906 64.53125 L 48.238281 71.75 C 48.039062 72.769531 48.738281 73.78125 49.730469 73.988281 C 50.71875 74.199219 51.71875 73.480469 51.910156 72.46875 L 52.410156 69.828125 C 54.589844 73.179688 56.679688 76.328125 57.269531 77.351562 L 33.839844 77.351562 L 37.609375 71.558594 L 38.011719 70.949219 C 39.699219 68.308594 44.171875 61.5 45.359375 59.671875 C 45.460938 59.570312 45.558594 59.46875 45.558594 59.261719 C 45.660156 59.359375 45.660156 59.460938 45.761719 59.558594 C 46.359375 60.46875 47.550781 60.679688 48.441406 60.070312 C 49.328125 59.460938 49.53125 58.238281 48.941406 57.328125 C 48.148438 56.109375 47.25 54.789062 45.859375 54.691406 C 45.070312 54.589844 44.269531 54.890625 43.578125 55.710938 C 43.179688 56.121094 42.789062 56.730469 42.289062 57.441406 C 41.101562 59.269531 36.628906 66.179688 34.941406 68.71875 L 34.539062 69.230469 L 30.570312 75.328125 C 29.679688 76.648438 28.78125 78.070312 29.578125 79.5 C 30.371094 81.019531 32.160156 81.019531 34.050781 81.019531 L 57.378906 81.019531 C 59.171875 81.019531 60.949219 81.019531 61.648438 79.5 C 62.539062 78.378906 61.550781 76.859375 60.660156 75.539062 Z M 10.03125 19.921875 C 8.941406 19.921875 8.140625 20.828125 8.140625 21.851562 L 8.140625 61.390625 C 8.140625 62.511719 9.03125 63.320312 10.03125 63.320312 C 11.03125 63.320312 11.921875 62.410156 11.921875 61.390625 L 11.921875 21.851562 C 11.921875 20.828125 11.128906 19.921875 10.03125 19.921875 Z M 27.898438 72.261719 C 27.898438 73.378906 27.011719 74.191406 26.011719 74.191406 L 12.210938 74.191406 C 5.460938 74.191406 0 68.601562 0 61.789062 L 0 19.71875 C 0 16.371094 1.691406 13.320312 4.371094 11.488281 L 4.371094 9.050781 C 4.371094 7.019531 5.660156 4.269531 11.820312 2.140625 C 16.078125 0.808594 21.640625 0 27.398438 0 C 33.160156 0 38.71875 0.808594 42.890625 2.238281 C 49.050781 4.269531 50.339844 7.121094 50.339844 9.148438 L 50.339844 11.589844 C 53.019531 13.421875 54.710938 16.46875 54.710938 19.820312 L 54.710938 50.71875 C 54.710938 51.839844 53.820312 52.648438 52.820312 52.648438 C 51.820312 52.648438 50.929688 51.738281 50.929688 50.71875 L 50.929688 19.71875 C 50.929688 17.480469 49.640625 15.351562 47.648438 14.441406 C 47.449219 14.339844 47.25 14.238281 47.148438 14.03125 C 46.058594 14.738281 44.671875 15.351562 42.878906 15.960938 C 38.710938 17.378906 33.148438 18.089844 27.390625 18.089844 C 21.628906 18.089844 16.070312 17.378906 11.898438 15.960938 C 10.109375 15.351562 8.71875 14.640625 7.628906 14.03125 C 7.429688 14.230469 7.328125 14.328125 7.03125 14.441406 C 5.039062 15.351562 3.75 17.488281 3.75 19.71875 L 3.75 61.789062 C 3.75 66.46875 7.519531 70.328125 12.089844 70.328125 L 25.890625 70.328125 C 26.980469 70.328125 27.878906 71.238281 27.878906 72.261719 Z M 8.238281 9.050781 C 8.238281 10.570312 14.789062 14.230469 27.5 14.230469 C 40.210938 14.230469 46.660156 10.671875 46.660156 9.050781 C 46.660156 7.429688 40.109375 3.871094 27.398438 3.871094 C 14.691406 3.871094 8.238281 7.519531 8.238281 9.050781 Z M 8.238281 9.050781 "></path></g></svg> 