<?xml version="1.0" encoding="UTF-8"?> <svg xmlns="http://www.w3.org/2000/svg" xmlns:xlink="http://www.w3.org/1999/xlink" width="81px" height="81px" viewBox="0 0 81 81" version="1.1"><g id="surface1"><path style=" stroke:none;fill-rule:evenodd;fill:rgb(36.470588%,36.470588%,36.470588%);fill-opacity:1;" d="M 40.5 10.429688 C 26.730469 10.429688 14.679688 19.84375 11.339844 33.109375 C 10.632812 35.742188 10.328125 38.476562 10.429688 41.007812 L 10.429688 41.109375 C 10.734375 57.308594 24.097656 70.570312 40.5 70.570312 C 54.066406 70.570312 65.609375 61.457031 69.355469 49.003906 C 70.570312 44.753906 70.570312 41.511719 70.570312 41.109375 L 70.570312 41.007812 C 70.875 24.300781 57.207031 10.429688 40.5 10.429688 Z M 13.0625 42.324219 L 68.039062 42.324219 C 67.9375 44.042969 67.636719 45.765625 67.230469 47.386719 L 13.871094 47.386719 C 13.363281 45.664062 13.164062 43.941406 13.0625 42.324219 Z M 68.039062 39.691406 L 41.714844 39.691406 L 41.714844 34.628906 L 67.332031 34.628906 C 67.734375 36.347656 67.9375 38.070312 68.039062 39.691406 Z M 41.714844 32.097656 L 41.714844 27.035156 L 64.496094 27.035156 C 65.40625 28.652344 66.117188 30.375 66.722656 32.097656 Z M 62.875 24.503906 L 41.714844 24.503906 L 41.714844 19.441406 L 58.117188 19.441406 C 59.941406 20.957031 61.558594 22.679688 62.875 24.503906 Z M 41.816406 12.960938 C 46.371094 13.164062 50.828125 14.578125 54.675781 16.808594 L 41.816406 16.808594 C 41.816406 16.910156 41.816406 12.960938 41.816406 12.960938 Z M 15.796875 28.453125 L 16.910156 29.261719 L 16.503906 30.679688 L 17.617188 29.867188 L 18.832031 30.679688 L 18.226562 29.261719 L 19.441406 28.453125 L 18.023438 28.453125 L 17.617188 27.035156 L 17.210938 28.453125 L 15.796875 28.453125 C 20.148438 19.640625 28.957031 13.464844 39.285156 12.960938 L 39.285156 39.691406 L 12.960938 39.691406 C 13.0625 35.742188 14.074219 31.894531 15.796875 28.453125 Z M 28.148438 65.105469 L 52.75 65.105469 C 45.054688 69.050781 35.945312 69.050781 28.148438 65.105469 Z M 56.902344 62.574219 L 24.097656 62.574219 C 22.171875 61.15625 20.351562 59.433594 18.933594 57.511719 L 62.167969 57.511719 C 60.648438 59.433594 58.925781 61.15625 56.902344 62.574219 Z M 63.890625 54.980469 L 17.109375 54.980469 C 16.097656 53.359375 15.289062 51.636719 14.679688 49.917969 L 66.421875 49.917969 C 65.710938 51.636719 64.902344 53.359375 63.890625 54.980469 Z M 63.890625 54.980469 "></path><path style=" stroke:none;fill-rule:evenodd;fill:rgb(36.470588%,36.470588%,36.470588%);fill-opacity:1;" d="M 25.109375 19.441406 L 24.703125 20.859375 L 23.289062 20.859375 L 24.402344 21.667969 L 23.996094 23.085938 L 25.109375 22.171875 L 26.324219 23.085938 L 25.820312 21.667969 L 27.035156 20.859375 L 25.617188 20.859375 Z M 25.109375 19.441406 "></path><path style=" stroke:none;fill-rule:evenodd;fill:rgb(36.470588%,36.470588%,36.470588%);fill-opacity:1;" d="M 28.957031 19.441406 L 28.453125 20.859375 L 27.035156 20.859375 L 28.25 21.667969 L 27.742188 23.085938 L 28.957031 22.171875 L 30.070312 23.085938 L 29.667969 21.667969 L 30.882812 20.859375 L 29.363281 20.859375 Z M 28.957031 19.441406 "></path><path style=" stroke:none;fill-rule:evenodd;fill:rgb(36.470588%,36.470588%,36.470588%);fill-opacity:1;" d="M 32.703125 19.441406 L 32.296875 20.859375 L 30.882812 20.859375 L 31.996094 21.667969 L 31.589844 23.085938 L 32.703125 22.171875 L 33.917969 23.085938 L 33.414062 21.667969 L 34.628906 20.859375 L 33.210938 20.859375 Z M 32.703125 19.441406 "></path><path style=" stroke:none;fill-rule:evenodd;fill:rgb(36.470588%,36.470588%,36.470588%);fill-opacity:1;" d="M 36.550781 19.441406 L 36.144531 20.859375 L 34.628906 20.859375 L 35.84375 21.667969 L 35.335938 23.085938 L 36.550781 22.171875 L 37.664062 23.085938 L 37.261719 21.667969 L 38.476562 20.859375 L 36.957031 20.859375 Z M 36.550781 19.441406 "></path><path style=" stroke:none;fill-rule:evenodd;fill:rgb(36.470588%,36.470588%,36.470588%);fill-opacity:1;" d="M 28.957031 15.796875 L 28.453125 17.210938 L 27.035156 17.210938 L 28.25 18.125 L 27.742188 19.441406 L 28.957031 18.628906 L 30.070312 19.441406 L 29.667969 18.125 L 30.882812 17.210938 L 29.363281 17.210938 Z M 28.957031 15.796875 "></path><path style=" stroke:none;fill-rule:evenodd;fill:rgb(36.470588%,36.470588%,36.470588%);fill-opacity:1;" d="M 32.703125 15.796875 L 32.296875 17.210938 L 30.882812 17.210938 L 31.996094 18.125 L 31.589844 19.441406 L 32.703125 18.628906 L 33.917969 19.441406 L 33.414062 18.125 L 34.628906 17.210938 L 33.210938 17.210938 Z M 32.703125 15.796875 "></path><path style=" stroke:none;fill-rule:evenodd;fill:rgb(36.470588%,36.470588%,36.470588%);fill-opacity:1;" d="M 36.550781 15.796875 L 36.144531 17.210938 L 34.628906 17.210938 L 35.84375 18.125 L 35.335938 19.441406 L 36.550781 18.628906 L 37.664062 19.441406 L 37.261719 18.125 L 38.476562 17.210938 L 36.957031 17.210938 Z M 36.550781 15.796875 "></path><path style=" stroke:none;fill-rule:evenodd;fill:rgb(36.470588%,36.470588%,36.470588%);fill-opacity:1;" d="M 25.109375 23.085938 L 24.703125 24.402344 L 23.289062 24.402344 L 24.402344 25.3125 L 23.996094 26.628906 L 25.109375 25.820312 L 26.324219 26.628906 L 25.820312 25.3125 L 27.035156 24.402344 L 25.617188 24.402344 Z M 25.109375 23.085938 "></path><path style=" stroke:none;fill-rule:evenodd;fill:rgb(36.470588%,36.470588%,36.470588%);fill-opacity:1;" d="M 28.957031 23.085938 L 28.453125 24.402344 L 27.035156 24.402344 L 28.25 25.3125 L 27.742188 26.628906 L 28.957031 25.820312 L 30.070312 26.628906 L 29.667969 25.3125 L 30.882812 24.402344 L 29.363281 24.402344 Z M 28.957031 23.085938 "></path><path style=" stroke:none;fill-rule:evenodd;fill:rgb(36.470588%,36.470588%,36.470588%);fill-opacity:1;" d="M 32.703125 23.085938 L 32.296875 24.402344 L 30.882812 24.402344 L 31.996094 25.3125 L 31.589844 26.628906 L 32.703125 25.820312 L 33.917969 26.628906 L 33.414062 25.3125 L 34.628906 24.402344 L 33.210938 24.402344 Z M 32.703125 23.085938 "></path><path style=" stroke:none;fill-rule:evenodd;fill:rgb(36.470588%,36.470588%,36.470588%);fill-opacity:1;" d="M 36.550781 23.085938 L 36.144531 24.402344 L 34.628906 24.402344 L 35.84375 25.3125 L 35.335938 26.628906 L 36.550781 25.820312 L 37.664062 26.628906 L 37.261719 25.3125 L 38.476562 24.402344 L 36.957031 24.402344 Z M 36.550781 23.085938 "></path><path style=" stroke:none;fill-rule:evenodd;fill:rgb(36.470588%,36.470588%,36.470588%);fill-opacity:1;" d="M 25.109375 27.035156 L 24.703125 28.453125 L 23.289062 28.453125 L 24.402344 29.261719 L 23.996094 30.679688 L 25.109375 29.765625 L 26.324219 30.679688 L 25.820312 29.261719 L 27.035156 28.453125 L 25.617188 28.453125 Z M 25.109375 27.035156 "></path><path style=" stroke:none;fill-rule:evenodd;fill:rgb(36.470588%,36.470588%,36.470588%);fill-opacity:1;" d="M 28.957031 27.035156 L 28.453125 28.453125 L 27.035156 28.453125 L 28.25 29.261719 L 27.742188 30.679688 L 28.957031 29.765625 L 30.070312 30.679688 L 29.667969 29.261719 L 30.882812 28.453125 L 29.363281 28.453125 Z M 28.957031 27.035156 "></path><path style=" stroke:none;fill-rule:evenodd;fill:rgb(36.470588%,36.470588%,36.470588%);fill-opacity:1;" d="M 32.703125 27.035156 L 32.296875 28.453125 L 30.882812 28.453125 L 31.996094 29.261719 L 31.589844 30.679688 L 32.703125 29.765625 L 33.917969 30.679688 L 33.414062 29.261719 L 34.628906 28.453125 L 33.210938 28.453125 Z M 32.703125 27.035156 "></path><path style=" stroke:none;fill-rule:evenodd;fill:rgb(36.470588%,36.470588%,36.470588%);fill-opacity:1;" d="M 36.550781 27.035156 L 36.144531 28.453125 L 34.628906 28.453125 L 35.84375 29.261719 L 35.335938 30.679688 L 36.550781 29.765625 L 37.664062 30.679688 L 37.261719 29.261719 L 38.476562 28.453125 L 36.957031 28.453125 Z M 36.550781 27.035156 "></path><path style=" stroke:none;fill-rule:evenodd;fill:rgb(36.470588%,36.470588%,36.470588%);fill-opacity:1;" d="M 25.109375 30.679688 L 24.703125 31.996094 L 23.289062 31.996094 L 24.402344 32.90625 L 23.996094 34.222656 L 25.109375 33.414062 L 26.324219 34.222656 L 25.820312 32.90625 L 27.035156 31.996094 L 25.617188 31.996094 Z M 25.109375 30.679688 "></path><path style=" stroke:none;fill-rule:evenodd;fill:rgb(36.470588%,36.470588%,36.470588%);fill-opacity:1;" d="M 28.957031 30.679688 L 28.453125 31.996094 L 27.035156 31.996094 L 28.25 32.90625 L 27.742188 34.222656 L 28.957031 33.414062 L 30.070312 34.222656 L 29.667969 32.90625 L 30.882812 31.996094 L 29.363281 31.996094 Z M 28.957031 30.679688 "></path><path style=" stroke:none;fill-rule:evenodd;fill:rgb(36.470588%,36.470588%,36.470588%);fill-opacity:1;" d="M 32.703125 30.679688 L 32.296875 31.996094 L 30.882812 31.996094 L 31.996094 32.90625 L 31.589844 34.222656 L 32.703125 33.414062 L 33.917969 34.222656 L 33.414062 32.90625 L 34.628906 31.996094 L 33.210938 31.996094 Z M 32.703125 30.679688 "></path><path style=" stroke:none;fill-rule:evenodd;fill:rgb(36.470588%,36.470588%,36.470588%);fill-opacity:1;" d="M 36.550781 30.679688 L 36.144531 31.996094 L 34.628906 31.996094 L 35.84375 32.90625 L 35.335938 34.222656 L 36.550781 33.414062 L 37.664062 34.222656 L 37.261719 32.90625 L 38.476562 31.996094 L 36.957031 31.996094 Z M 36.550781 30.679688 "></path><path style=" stroke:none;fill-rule:evenodd;fill:rgb(36.470588%,36.470588%,36.470588%);fill-opacity:1;" d="M 25.109375 34.222656 L 24.703125 35.640625 L 23.289062 35.640625 L 24.402344 36.449219 L 23.996094 37.867188 L 25.109375 36.957031 L 26.324219 37.867188 L 25.820312 36.449219 L 27.035156 35.640625 L 25.617188 35.640625 Z M 25.109375 34.222656 "></path><path style=" stroke:none;fill-rule:evenodd;fill:rgb(36.470588%,36.470588%,36.470588%);fill-opacity:1;" d="M 21.363281 23.085938 L 20.859375 24.402344 L 19.441406 24.402344 L 20.65625 25.3125 L 20.148438 26.628906 L 21.363281 25.820312 L 22.476562 26.628906 L 22.074219 25.3125 L 23.289062 24.402344 L 21.769531 24.402344 Z M 21.363281 23.085938 "></path><path style=" stroke:none;fill-rule:evenodd;fill:rgb(36.470588%,36.470588%,36.470588%);fill-opacity:1;" d="M 20.148438 30.679688 L 21.363281 29.765625 L 22.476562 30.679688 L 22.074219 29.261719 L 23.289062 28.453125 L 21.769531 28.453125 L 21.363281 27.035156 L 20.859375 28.453125 L 19.441406 28.453125 L 20.65625 29.261719 Z M 20.148438 30.679688 "></path><path style=" stroke:none;fill-rule:evenodd;fill:rgb(36.470588%,36.470588%,36.470588%);fill-opacity:1;" d="M 21.363281 30.679688 L 20.859375 31.996094 L 19.441406 31.996094 L 20.65625 32.90625 L 20.148438 34.222656 L 21.363281 33.414062 L 22.476562 34.222656 L 22.074219 32.90625 L 23.289062 31.996094 L 21.769531 31.996094 Z M 21.363281 30.679688 "></path><path style=" stroke:none;fill-rule:evenodd;fill:rgb(36.470588%,36.470588%,36.470588%);fill-opacity:1;" d="M 21.769531 35.640625 L 21.363281 34.222656 L 20.859375 35.640625 L 19.441406 35.640625 L 20.65625 36.449219 L 20.148438 37.867188 L 21.363281 36.957031 L 22.476562 37.867188 L 22.074219 36.449219 L 23.289062 35.640625 Z M 21.769531 35.640625 "></path><path style=" stroke:none;fill-rule:evenodd;fill:rgb(36.470588%,36.470588%,36.470588%);fill-opacity:1;" d="M 17.515625 30.679688 L 17.109375 31.996094 L 15.695312 31.996094 L 16.808594 32.90625 L 16.402344 34.222656 L 17.515625 33.414062 L 18.730469 34.222656 L 18.226562 32.90625 L 19.441406 31.996094 L 18.023438 31.996094 Z M 17.515625 30.679688 "></path><path style=" stroke:none;fill-rule:evenodd;fill:rgb(36.470588%,36.470588%,36.470588%);fill-opacity:1;" d="M 17.515625 34.222656 L 17.109375 35.640625 L 15.695312 35.640625 L 16.808594 36.449219 L 16.402344 37.867188 L 17.515625 36.957031 L 18.730469 37.867188 L 18.226562 36.449219 L 19.441406 35.640625 L 18.023438 35.640625 Z M 17.515625 34.222656 "></path><path style=" stroke:none;fill-rule:evenodd;fill:rgb(36.470588%,36.470588%,36.470588%);fill-opacity:1;" d="M 29.363281 35.640625 L 28.957031 34.222656 L 28.453125 35.640625 L 27.035156 35.640625 L 28.25 36.449219 L 27.742188 37.867188 L 28.957031 36.957031 L 30.070312 37.867188 L 29.667969 36.449219 L 30.882812 35.640625 Z M 29.363281 35.640625 "></path><path style=" stroke:none;fill-rule:evenodd;fill:rgb(36.470588%,36.470588%,36.470588%);fill-opacity:1;" d="M 33.210938 35.640625 L 32.703125 34.222656 L 32.296875 35.640625 L 30.882812 35.640625 L 31.996094 36.449219 L 31.589844 37.867188 L 32.703125 36.957031 L 33.917969 37.867188 L 33.414062 36.449219 L 34.628906 35.640625 Z M 33.210938 35.640625 "></path><path style=" stroke:none;fill-rule:evenodd;fill:rgb(36.470588%,36.470588%,36.470588%);fill-opacity:1;" d="M 36.957031 35.640625 L 36.550781 34.222656 L 36.144531 35.640625 L 34.628906 35.640625 L 35.84375 36.449219 L 35.335938 37.867188 L 36.550781 36.957031 L 37.664062 37.867188 L 37.261719 36.449219 L 38.476562 35.640625 Z M 36.957031 35.640625 "></path><path style=" stroke:none;fill-rule:nonzero;fill:rgb(36.470588%,36.470588%,36.470588%);fill-opacity:1;" d="M 18.527344 81 C 10.53125 81 4.050781 74.519531 4.050781 66.421875 C 4.050781 65.40625 4.65625 64.800781 5.671875 64.800781 C 6.683594 64.800781 7.289062 65.40625 7.289062 66.421875 C 7.289062 72.699219 12.25 77.761719 18.628906 77.761719 C 21.667969 77.761719 24.503906 76.644531 26.730469 74.519531 C 27.335938 73.914062 28.351562 73.914062 28.957031 74.519531 C 29.566406 75.128906 29.566406 76.140625 28.957031 76.746094 C 26.222656 79.582031 22.476562 81 18.527344 81 Z M 18.527344 81 "></path><path style=" stroke:none;fill-rule:nonzero;fill:rgb(36.470588%,36.470588%,36.470588%);fill-opacity:1;" d="M 11.136719 72.089844 C 10.832031 72.089844 10.53125 71.886719 10.125 71.785156 L 4.65625 67.734375 C 4.050781 67.230469 3.847656 66.117188 4.355469 65.507812 C 4.859375 64.902344 5.769531 64.699219 6.582031 65.203125 L 12.046875 69.253906 C 12.65625 69.761719 12.859375 70.875 12.351562 71.484375 C 12.046875 71.988281 11.644531 72.089844 11.136719 72.089844 Z M 11.136719 72.089844 "></path><path style=" stroke:none;fill-rule:nonzero;fill:rgb(36.470588%,36.470588%,36.470588%);fill-opacity:1;" d="M 1.621094 73.609375 C 1.316406 73.609375 1.011719 73.40625 0.609375 73.304688 C 0 72.796875 -0.203125 71.683594 0.304688 71.078125 L 4.355469 65.609375 C 4.859375 65.003906 5.769531 64.800781 6.582031 65.304688 C 7.1875 65.8125 7.390625 66.925781 6.886719 67.535156 L 2.835938 73 C 2.53125 73.40625 2.023438 73.609375 1.621094 73.609375 Z M 1.621094 73.609375 "></path><path style=" stroke:none;fill-rule:nonzero;fill:rgb(36.470588%,36.470588%,36.470588%);fill-opacity:1;" d="M 63.988281 0.203125 C 71.988281 1.417969 77.457031 8.808594 76.242188 16.808594 C 76.140625 17.820312 75.328125 18.328125 74.417969 18.125 C 73.507812 17.921875 72.898438 17.210938 73 16.300781 C 73.914062 10.023438 69.761719 4.355469 63.484375 3.339844 C 60.445312 2.835938 57.511719 3.542969 54.980469 5.367188 C 54.269531 5.871094 53.257812 5.769531 52.75 5.0625 C 52.246094 4.355469 52.347656 3.339844 53.054688 2.835938 C 56.195312 0.507812 60.140625 -0.40625 63.988281 0.203125 Z M 63.988281 0.203125 "></path><path style=" stroke:none;fill-rule:nonzero;fill:rgb(36.470588%,36.470588%,36.470588%);fill-opacity:1;" d="M 70.066406 10.125 C 70.367188 10.226562 70.671875 10.328125 70.976562 10.632812 L 75.835938 15.492188 C 76.445312 16.097656 76.445312 17.210938 75.835938 17.820312 C 75.230469 18.425781 74.316406 18.425781 73.507812 17.820312 L 68.648438 12.960938 C 68.039062 12.351562 68.039062 11.238281 68.648438 10.632812 C 69.050781 10.125 69.558594 10.023438 70.066406 10.125 Z M 70.066406 10.125 "></path><path style=" stroke:none;fill-rule:nonzero;fill:rgb(36.470588%,36.470588%,36.470588%);fill-opacity:1;" d="M 79.683594 10.125 C 79.988281 10.226562 80.292969 10.328125 80.59375 10.632812 C 81.203125 11.238281 81.203125 12.351562 80.59375 12.960938 L 75.734375 17.820312 C 75.128906 18.425781 74.214844 18.425781 73.40625 17.820312 C 72.796875 17.210938 72.796875 16.097656 73.40625 15.492188 L 78.265625 10.632812 C 78.671875 10.125 79.175781 10.023438 79.683594 10.125 Z M 79.683594 10.125 "></path></g></svg> 