<?xml version="1.0" encoding="UTF-8"?> <svg xmlns="http://www.w3.org/2000/svg" xmlns:xlink="http://www.w3.org/1999/xlink" version="1.1" id="Layer_1" x="0px" y="0px" viewBox="0 0 80 80" style="enable-background:new 0 0 80 80;" xml:space="preserve"> <style type="text/css"> .st0{fill-rule:evenodd;clip-rule:evenodd;fill:#5D5D5D;} .st1{fill:#5D5D5D;} </style> <path class="st0" d="M26,13.4c-9.5,5-16,14.9-16,26.4c0,11.5,6.5,21.4,16,26.4V13.4z"></path> <path class="st0" d="M53.7,13.4v52.8c9.5-5,16-14.9,16-26.4C69.7,28.4,63.2,18.4,53.7,13.4z"></path> <path class="st0" d="M38.1,50.5c-0.1,0-0.2-0.1-0.2-0.2v-3.5c0-0.1-0.1-0.2-0.2-0.2h-4.8c-0.2,0-0.3-0.2-0.2-0.3l1.9-3.2 c0.1-0.1,0-0.2-0.1-0.3l-5.9-3.1c-0.2-0.1-0.1-0.4,0-0.4l2.9-0.6c0.1,0,0.2-0.1,0.2-0.2l-0.6-3.2c0-0.2,0.2-0.3,0.3-0.2l4.9,3.3 c0.2,0.1,0.4,0,0.3-0.2l-1.8-5.3c-0.1-0.2,0.1-0.3,0.3-0.3l2.4,0.6c0.1,0,0.2,0,0.2-0.1l1.9-3.5c0.1-0.1,0.3-0.1,0.4,0L42,33 c0,0.1,0.2,0.1,0.2,0.1l2.4-0.6c0.2,0,0.3,0.1,0.3,0.3L43,38.1c-0.1,0.2,0.2,0.4,0.3,0.2l4.9-3.3c0.2-0.1,0.4,0,0.3,0.2L48,38.5 c0,0.1,0,0.2,0.2,0.2l2.9,0.6c0.2,0,0.2,0.3,0,0.4l-5.9,3.1c-0.1,0.1-0.2,0.2-0.1,0.3l1.9,3.2c0.1,0.1,0,0.3-0.2,0.3h-4.8 c-0.1,0-0.2,0.1-0.2,0.2v3.5c0,0.1-0.1,0.2-0.2,0.2L38.1,50.5L38.1,50.5z"></path> <g> <path class="st1" d="M18.3,80C10.4,80,4,73.6,4,65.6c0-1,0.6-1.6,1.6-1.6s1.6,0.6,1.6,1.6c0,6.2,4.9,11.2,11.2,11.2 c3,0,5.8-1.1,8-3.2c0.6-0.6,1.6-0.6,2.2,0s0.6,1.6,0,2.2C25.9,78.6,22.2,80,18.3,80L18.3,80L18.3,80z"></path> <path class="st1" d="M11,71.2c-0.3,0-0.6-0.2-1-0.3l-5.4-4c-0.6-0.5-0.8-1.6-0.3-2.2s1.4-0.8,2.2-0.3l5.4,4 c0.6,0.5,0.8,1.6,0.3,2.2C11.9,71.1,11.5,71.2,11,71.2z"></path> <path class="st1" d="M1.6,72.7c-0.3,0-0.6-0.2-1-0.3c-0.6-0.5-0.8-1.6-0.3-2.2l4-5.4c0.5-0.6,1.4-0.8,2.2-0.3 c0.6,0.5,0.8,1.6,0.3,2.2l-4,5.4C2.5,72.5,2,72.7,1.6,72.7z"></path> </g> <g> <path class="st1" d="M63.2,0.2c7.9,1.2,13.3,8.5,12.1,16.4c-0.1,1-0.9,1.5-1.8,1.3S72,17,72.1,16.1C73,9.9,68.9,4.3,62.7,3.3 c-3-0.5-5.9,0.2-8.4,2c-0.7,0.5-1.7,0.4-2.2-0.3s-0.4-1.7,0.3-2.2C55.5,0.5,59.4-0.4,63.2,0.2z"></path> <path class="st1" d="M69.2,10c0.3,0.1,0.6,0.2,0.9,0.5l4.8,4.8c0.6,0.6,0.6,1.7,0,2.3s-1.5,0.6-2.3,0l-4.8-4.8 c-0.6-0.6-0.6-1.7,0-2.3C68.2,10,68.7,9.9,69.2,10z"></path> <path class="st1" d="M78.7,10c0.3,0.1,0.6,0.2,0.9,0.5c0.6,0.6,0.6,1.7,0,2.3l-4.8,4.8c-0.6,0.6-1.5,0.6-2.3,0 c-0.6-0.6-0.6-1.7,0-2.3l4.8-4.8C77.7,10,78.2,9.9,78.7,10z"></path> </g> </svg> 